<?xml version="1.0" encoding="UTF-8"?>
<svg viewBox="0 0 64 64" xmlns="http://www.w3.org/2000/svg">
  <!-- Background -->
  <circle cx="32" cy="32" r="30" fill="#0077b6" />
  
  <!-- Sun -->
  <circle cx="22" cy="25" r="10" fill="#ffdd00" />
  
  <!-- Cloud -->
  <path d="M48,26c-1.1,0-2.1,0.2-3,0.6c-0.1-0.2-0.3-0.4-0.4-0.6c-0.8-1.4-2-2.4-3.5-3C39.9,20.8,37.2,19,34,19c-4.4,0-8,3.6-8,8
    c0,0.2,0,0.4,0,0.6c-0.6-0.3-1.3-0.6-2-0.6c-2.8,0-5,2.2-5,5s2.2,5,5,5h24c3.3,0,6-2.7,6-6S51.3,26,48,26z" fill="#ffffff" />
  
  <!-- Rain drops -->
  <path d="M30,45l-3,8M36,45l-3,8M42,45l-3,8" stroke="#aed9e6" stroke-width="2" stroke-linecap="round" />
</svg>